<?xml version="1.0" encoding="UTF-8" standalone="no"?>
<!-- Created with Inkscape (http://www.inkscape.org/) -->

<svg
   xmlns:dc="http://purl.org/dc/elements/1.1/"
   xmlns:cc="http://creativecommons.org/ns#"
   xmlns:rdf="http://www.w3.org/1999/02/22-rdf-syntax-ns#"
   xmlns:svg="http://www.w3.org/2000/svg"
   xmlns="http://www.w3.org/2000/svg"
   xmlns:sodipodi="http://sodipodi.sourceforge.net/DTD/sodipodi-0.dtd"
   xmlns:inkscape="http://www.inkscape.org/namespaces/inkscape"
   width="22"
   height="22"
   id="svg4674"
   version="1.1"
   inkscape:version="0.48.3.1 r9886"
   sodipodi:docname="steam-logo-small-shadow.svg">
  <defs
     id="defs4676" />
  <sodipodi:namedview
     id="base"
     pagecolor="#ffffff"
     bordercolor="#666666"
     borderopacity="1.0"
     inkscape:pageopacity="0.0"
     inkscape:pageshadow="2"
     inkscape:zoom="6.7840909"
     inkscape:cx="-6.0133685"
     inkscape:cy="9.6311025"
     inkscape:current-layer="layer1"
     showgrid="true"
     inkscape:grid-bbox="true"
     inkscape:document-units="px"
     inkscape:snap-bbox="false"
     inkscape:window-width="1280"
     inkscape:window-height="776"
     inkscape:window-x="0"
     inkscape:window-y="24"
     inkscape:window-maximized="1" />
  <metadata
     id="metadata4679">
    <rdf:RDF>
      <cc:Work
         rdf:about="">
        <dc:format>image/svg+xml</dc:format>
        <dc:type
           rdf:resource="http://purl.org/dc/dcmitype/StillImage" />
        <dc:title></dc:title>
      </cc:Work>
    </rdf:RDF>
  </metadata>
  <g
     id="layer1"
     inkscape:label="Layer 1"
     inkscape:groupmode="layer"
     style="display:inline"
     transform="translate(0,-26)">
    <path
       style="opacity:0.3;fill-opacity:1;display:inline"
       d="m 3.7103474,27.302373 c -1.3158045,0 -2.383315,1.051073 -2.383315,2.366878 l 0,6.393859 5.8514492,2.498371 c 0.455513,-0.302799 1.006555,-0.476663 1.594356,-0.476663 0.03848,0 0.07694,-0.0015 0.115056,0 l 2.5148084,-3.681811 c 0.01808,-2.144232 1.763426,-3.87905 3.911924,-3.87905 2.159729,0 3.911924,1.752196 3.911924,3.911924 0,2.159728 -1.752195,3.911924 -3.911924,3.911924 -0.02246,0 -0.04338,3.77e-4 -0.06575,0 l -3.599628,2.564118 c 2.77e-4,0.01643 0,0.03282 0,0.04931 0,1.588231 -1.288184,2.876415 -2.8764144,2.876415 -1.384169,0 -2.536395,-0.981938 -2.810668,-2.284695 l -4.6351372,-1.988835 0,4.76663 c 0,1.315805 1.0675105,2.366878 2.383315,2.366878 l 14.5793136,0 c 1.315805,0 2.383315,-1.051073 2.383315,-2.366878 l 0,-14.661497 c 0,-1.315805 -1.06751,-2.366878 -2.383315,-2.366878 l -14.5793136,0 z m 11.6042786,4.585826 c -1.40845,0 -2.547681,1.139231 -2.547681,2.547682 0,1.40845 1.139231,2.547681 2.547681,2.547681 1.408451,0 2.547682,-1.139231 2.547682,-2.547681 0,-1.408451 -1.139231,-2.547682 -2.547682,-2.547682 z m 0,0.624594 c 1.062862,0 1.923089,0.860226 1.923089,1.923088 0,1.062862 -0.860227,1.923088 -1.923089,1.923088 -1.062861,0 -1.923088,-0.860226 -1.923088,-1.923088 0,-1.062862 0.860227,-1.923088 1.923088,-1.923088 z m -6.5417884,6.262366 c -0.270588,0 -0.533286,0.0415 -0.772523,0.131493 l 1.101256,0.476663 c 0.9489344,0.405448 1.4372324,1.394141 1.0848194,2.218949 -0.3524134,0.824808 -1.4015074,1.161534 -2.3504424,0.756086 l -1.019072,-0.44379 c 0.355579,0.726109 1.093375,1.232749 1.955962,1.232749 1.206789,0 2.1860754,-0.979285 2.1860754,-2.186075 0,-1.206789 -0.9792864,-2.186075 -2.1860754,-2.186075 z"
       id="rect4682-4"
       inkscape:connector-curvature="0" />
    <path
       style="fill:#dfdbd2;fill-opacity:1;stroke-width:1.29999995;stroke-linejoin:round;stroke-miterlimit:4;stroke-dasharray:none"
       d="m 3.7103465,27.302373 c -1.3158048,0 -2.383315,1.051073 -2.383315,2.366878 l 0,6.393859 5.851449,2.498371 c 0.455513,-0.302799 1.006555,-0.476663 1.594356,-0.476663 0.03848,0 0.07694,-0.0015 0.115056,0 l 2.5148095,-3.68181 c 0.01808,-2.144233 1.763425,-3.879051 3.911924,-3.879051 2.159728,0 3.911923,1.752196 3.911923,3.911924 0,2.159728 -1.752196,3.911924 -3.911923,3.911924 -0.02246,0 -0.04338,3.77e-4 -0.06575,0 l -3.599628,2.564118 c 2.77e-4,0.01643 0,0.03282 0,0.04931 0,1.588231 -1.288184,2.876415 -2.8764145,2.876415 -1.384169,0 -2.536394,-0.981938 -2.810668,-2.284695 l -4.635137,-1.988835 0,4.766629 c 0,1.315805 1.0675102,2.366879 2.383315,2.366879 l 14.5793125,0 c 1.315805,0 2.383315,-1.051074 2.383315,-2.366879 l 0,-14.661495 c 0,-1.315806 -1.06751,-2.366878 -2.383315,-2.366878 l -14.5793125,0 z m 11.6042795,4.585826 c -1.408451,0 -2.547682,1.139231 -2.547682,2.547682 0,1.40845 1.139231,2.547681 2.547682,2.547681 1.40845,0 2.547681,-1.139231 2.547681,-2.547681 0,-1.408451 -1.139231,-2.547682 -2.547681,-2.547682 z m 0,0.624594 c 1.062861,0 1.923088,0.860226 1.923088,1.923088 0,1.062862 -0.860227,1.923089 -1.923088,1.923089 -1.062862,0 -1.923089,-0.860228 -1.923089,-1.923089 0,-1.062862 0.860227,-1.923089 1.923089,-1.923089 z m -6.5417895,6.262365 c -0.270588,0 -0.533286,0.0415 -0.772523,0.131493 l 1.101256,0.476663 c 0.9489355,0.405448 1.4372325,1.39414 1.0848195,2.218949 -0.3524135,0.824808 -1.4015075,1.161535 -2.3504425,0.756087 l -1.019072,-0.44379 c 0.35558,0.726109 1.093375,1.232748 1.955962,1.232748 1.20679,0 2.1860755,-0.979284 2.1860755,-2.186075 0,-1.20679 -0.9792855,-2.186075 -2.1860755,-2.186075 z"
       id="rect4682"
       inkscape:connector-curvature="0" />
  </g>
</svg>
