<?xml version="1.0" encoding="UTF-8" standalone="no"?>
<!-- Created with Inkscape (http://www.inkscape.org/) -->

<svg
   xmlns:dc="http://purl.org/dc/elements/1.1/"
   xmlns:cc="http://creativecommons.org/ns#"
   xmlns:rdf="http://www.w3.org/1999/02/22-rdf-syntax-ns#"
   xmlns:svg="http://www.w3.org/2000/svg"
   xmlns="http://www.w3.org/2000/svg"
   xmlns:sodipodi="http://sodipodi.sourceforge.net/DTD/sodipodi-0.dtd"
   xmlns:inkscape="http://www.inkscape.org/namespaces/inkscape"
   width="48px"
   height="48px"
   id="svg4674"
   version="1.1"
   inkscape:version="0.48.3.1 r9886"
   sodipodi:docname="steam-logo-small-shadow.svg">
  <defs
     id="defs4676" />
  <sodipodi:namedview
     id="base"
     pagecolor="#ffffff"
     bordercolor="#666666"
     borderopacity="1.0"
     inkscape:pageopacity="0.0"
     inkscape:pageshadow="2"
     inkscape:zoom="1"
     inkscape:cx="-152.14564"
     inkscape:cy="39.040231"
     inkscape:current-layer="layer1"
     showgrid="true"
     inkscape:grid-bbox="true"
     inkscape:document-units="px"
     inkscape:snap-bbox="false"
     inkscape:window-width="1045"
     inkscape:window-height="684"
     inkscape:window-x="61"
     inkscape:window-y="30"
     inkscape:window-maximized="0" />
  <metadata
     id="metadata4679">
    <rdf:RDF>
      <cc:Work
         rdf:about="">
        <dc:format>image/svg+xml</dc:format>
        <dc:type
           rdf:resource="http://purl.org/dc/dcmitype/StillImage" />
        <dc:title></dc:title>
      </cc:Work>
    </rdf:RDF>
  </metadata>
  <g
     id="layer1"
     inkscape:label="Layer 1"
     inkscape:groupmode="layer"
     style="display:inline">
    <path
       style="opacity:0.3;fill-opacity:1;display:inline"
       d="m 10.397172,5.6918 c -2.501658,0 -4.53125,1.9983414 -4.53125,4.499999 l 0,12.15625 11.125,4.75 c 0.866038,-0.575695 1.9137,-0.90625 3.03125,-0.90625 0.07317,0 0.146281,-0.0028 0.21875,0 l 4.78125,-7 c 0.03437,-4.076697 3.352692,-7.375 7.4375,-7.375 4.106158,0 7.4375,3.331342 7.4375,7.4375 0,4.106158 -3.331342,7.4375 -7.4375,7.4375 -0.0427,0 -0.08247,7.17e-4 -0.125,0 l -6.84375,4.875001 c 5.26e-4,0.03123 0,0.06239 0,0.09375 0,3.019604 -2.449146,5.46875 -5.46875,5.46875 -2.631634,0 -4.82229,-1.866899 -5.34375,-4.34375 l -8.8125,-3.78125 0,9.0625 c 0,2.501659 2.029592,4.5 4.53125,4.5 l 27.71875,0 c 2.501659,0 4.53125,-1.998341 4.53125,-4.5 l 0,-27.875001 c 0,-2.5016576 -2.029591,-4.499999 -4.53125,-4.499999 l -27.71875,0 z m 22.0625,8.718749 c -2.6778,0 -4.84375,2.16595 -4.84375,4.84375 0,2.6778 2.16595,4.84375 4.84375,4.84375 2.6778,0 4.84375,-2.16595 4.84375,-4.84375 0,-2.6778 -2.16595,-4.84375 -4.84375,-4.84375 z m 0,1.1875 c 2.020753,0 3.65625,1.635497 3.65625,3.65625 0,2.020753 -1.635497,3.65625 -3.65625,3.65625 -2.020753,0 -3.65625,-1.635497 -3.65625,-3.65625 0,-2.020753 1.635497,-3.65625 3.65625,-3.65625 z m -12.4375,11.90625 c -0.514452,0 -1.013903,0.0789 -1.46875,0.250001 l 2.09375,0.90625 c 1.804151,0.770853 2.732521,2.650593 2.0625,4.21875 -0.670021,1.568157 -2.664599,2.208353 -4.46875,1.4375 l -1.9375,-0.84375 c 0.676042,1.380506 2.078767,2.34375 3.71875,2.34375 2.294395,0 4.15625,-1.861855 4.15625,-4.15625 0,-2.294395 -1.861855,-4.156251 -4.15625,-4.156251 z"
       id="rect4682-4"
       inkscape:connector-curvature="0" />
    <path
       style="fill:#dfdbd2;fill-opacity:1;stroke-width:1.29999995;stroke-linejoin:round;stroke-miterlimit:4;stroke-dasharray:none"
       d="m 10.140625,5.5625 c -2.5016586,0 -4.53125,1.9983414 -4.53125,4.5 l 0,12.15625 11.125,4.75 c 0.866038,-0.575695 1.9137,-0.90625 3.03125,-0.90625 0.07317,0 0.146281,-0.0028 0.21875,0 l 4.78125,-7 c 0.03437,-4.076697 3.352692,-7.375 7.4375,-7.375 4.106158,0 7.4375,3.331342 7.4375,7.4375 0,4.106158 -3.331342,7.4375 -7.4375,7.4375 -0.0427,0 -0.08247,7.17e-4 -0.125,0 l -6.84375,4.875 c 5.26e-4,0.03123 0,0.06239 0,0.09375 0,3.019604 -2.449146,5.46875 -5.46875,5.46875 -2.631634,0 -4.82229,-1.866899 -5.34375,-4.34375 l -8.8125,-3.78125 0,9.0625 c 0,2.501659 2.0295914,4.5 4.53125,4.5 l 27.71875,0 c 2.501659,0 4.53125,-1.998341 4.53125,-4.5 l 0,-27.875 c 0,-2.5016586 -2.029591,-4.5 -4.53125,-4.5 l -27.71875,0 z m 22.0625,8.71875 c -2.6778,0 -4.84375,2.16595 -4.84375,4.84375 0,2.6778 2.16595,4.84375 4.84375,4.84375 2.6778,0 4.84375,-2.16595 4.84375,-4.84375 0,-2.6778 -2.16595,-4.84375 -4.84375,-4.84375 z m 0,1.1875 c 2.020753,0 3.65625,1.635497 3.65625,3.65625 0,2.020753 -1.635497,3.65625 -3.65625,3.65625 -2.020753,0 -3.65625,-1.635497 -3.65625,-3.65625 0,-2.020753 1.635497,-3.65625 3.65625,-3.65625 z M 19.765625,27.375 c -0.514452,0 -1.013903,0.0789 -1.46875,0.25 l 2.09375,0.90625 c 1.804151,0.770853 2.732521,2.650593 2.0625,4.21875 -0.670021,1.568157 -2.664599,2.208353 -4.46875,1.4375 l -1.9375,-0.84375 c 0.676042,1.380506 2.078767,2.34375 3.71875,2.34375 2.294395,0 4.15625,-1.861855 4.15625,-4.15625 0,-2.294395 -1.861855,-4.15625 -4.15625,-4.15625 z"
       id="rect4682"
       inkscape:connector-curvature="0" />
  </g>
</svg>
