<?xml version="1.0" encoding="UTF-8" standalone="no"?>
<!-- Created with Inkscape (http://www.inkscape.org/) -->

<svg
   xmlns:dc="http://purl.org/dc/elements/1.1/"
   xmlns:cc="http://creativecommons.org/ns#"
   xmlns:rdf="http://www.w3.org/1999/02/22-rdf-syntax-ns#"
   xmlns:svg="http://www.w3.org/2000/svg"
   xmlns="http://www.w3.org/2000/svg"
   xmlns:sodipodi="http://sodipodi.sourceforge.net/DTD/sodipodi-0.dtd"
   xmlns:inkscape="http://www.inkscape.org/namespaces/inkscape"
   width="24"
   height="24"
   id="svg4674"
   version="1.1"
   inkscape:version="0.48.3.1 r9886"
   sodipodi:docname="steam-logo-small-shadow.svg">
  <defs
     id="defs4676" />
  <sodipodi:namedview
     id="base"
     pagecolor="#ffffff"
     bordercolor="#666666"
     borderopacity="1.0"
     inkscape:pageopacity="0.0"
     inkscape:pageshadow="2"
     inkscape:zoom="8.2106903"
     inkscape:cx="11.998582"
     inkscape:cy="8.7828819"
     inkscape:current-layer="layer1"
     showgrid="true"
     inkscape:grid-bbox="true"
     inkscape:document-units="px"
     inkscape:snap-bbox="false"
     inkscape:window-width="1280"
     inkscape:window-height="776"
     inkscape:window-x="0"
     inkscape:window-y="24"
     inkscape:window-maximized="1" />
  <metadata
     id="metadata4679">
    <rdf:RDF>
      <cc:Work
         rdf:about="">
        <dc:format>image/svg+xml</dc:format>
        <dc:type
           rdf:resource="http://purl.org/dc/dcmitype/StillImage" />
        <dc:title></dc:title>
      </cc:Work>
    </rdf:RDF>
  </metadata>
  <g
     id="layer1"
     inkscape:label="Layer 1"
     inkscape:groupmode="layer"
     style="display:inline"
     transform="translate(0,-24)">
    <path
       style="opacity:0.3;fill-opacity:1;display:inline"
       d="m 5.1110583,26.835466 c -1.2434741,0 -2.2523031,0.993296 -2.2523031,2.23677 l 0,6.042384 5.5297917,2.361036 C 8.8190206,37.1895 9.3397708,37.025195 9.89526,37.025195 c 0.03637,0 0.072707,-0.0014 0.108732,0 l 2.376569,-3.47942 c 0.01708,-2.026362 1.666488,-3.665817 3.696883,-3.665817 2.041007,0 3.696884,1.655876 3.696884,3.696883 0,2.041007 -1.655877,3.696884 -3.696884,3.696884 -0.02122,0 -0.04099,3.57e-4 -0.06213,0 l -3.401755,2.423168 c 2.61e-4,0.01553 0,0.03101 0,0.04659 0,1.500925 -1.217373,2.718296 -2.7182972,2.718296 -1.3080796,0 -2.3969669,-0.927961 -2.6561638,-2.159103 l -4.380341,-1.879509 0,4.504606 c 0,1.243475 1.008829,2.23677 2.2523031,2.23677 l 13.7778809,0 c 1.243475,0 2.252304,-0.993295 2.252304,-2.23677 l 0,-13.855546 c 0,-1.243475 -1.008829,-2.23677 -2.252304,-2.23677 l -13.7778809,0 z m 10.9663857,4.333741 c -1.331027,0 -2.407634,1.076607 -2.407634,2.407634 0,1.331028 1.076607,2.407634 2.407634,2.407634 1.331027,0 2.407634,-1.076606 2.407634,-2.407634 0,-1.331027 -1.076607,-2.407634 -2.407634,-2.407634 z m 0,0.590259 c 1.004436,0 1.817375,0.812941 1.817375,1.817375 0,1.004436 -0.812939,1.817376 -1.817375,1.817376 -1.004436,0 -1.817375,-0.81294 -1.817375,-1.817376 0,-1.004434 0.812939,-1.817375 1.817375,-1.817375 z m -6.182184,5.91812 c -0.2557129,0 -0.5039702,0.03922 -0.7300567,0.124266 l 1.0407207,0.45046 c 0.896771,0.38316 1.358226,1.317504 1.025185,2.096972 -0.333041,0.779468 -1.3244653,1.097684 -2.2212364,0.714524 L 8.0468184,40.644413 c 0.3360334,0.686195 1.0332722,1.164985 1.8484416,1.164985 1.140453,0 2.065907,-0.925454 2.065907,-2.065905 0,-1.140453 -0.925454,-2.065907 -2.065907,-2.065907 z"
       id="rect4682-4"
       inkscape:connector-curvature="0" />
    <path
       style="fill:#dfdbd2;fill-opacity:1;stroke-width:1.29999995;stroke-linejoin:round;stroke-miterlimit:4;stroke-dasharray:none"
       d="m 5.1110592,26.835466 c -1.2434743,0 -2.252303,0.993296 -2.252303,2.23677 l 0,6.042386 5.5297919,2.361034 C 8.8190208,37.1895 9.339772,37.025195 9.8952612,37.025195 c 0.03637,0 0.072707,-0.0014 0.1087318,0 l 2.376567,-3.47942 c 0.01708,-2.026362 1.66649,-3.665817 3.696884,-3.665817 2.041007,0 3.696883,1.655877 3.696883,3.696883 0,2.041007 -1.655876,3.696884 -3.696883,3.696884 -0.02122,0 -0.04099,3.57e-4 -0.06213,0 l -3.401754,2.423168 c 2.6e-4,0.01553 0,0.03101 0,0.04659 0,1.500924 -1.217372,2.718296 -2.718297,2.718296 -1.3080796,0 -2.3969673,-0.927961 -2.6561642,-2.159103 l -4.3803409,-1.879509 0,4.504606 c 0,1.243475 1.0088286,2.23677 2.2523029,2.23677 l 13.7778812,0 c 1.243474,0 2.252302,-0.993295 2.252302,-2.23677 l 0,-13.855546 c 0,-1.243475 -1.008828,-2.23677 -2.252302,-2.23677 l -13.7778812,0 z m 10.9663858,4.333741 c -1.331027,0 -2.407634,1.076608 -2.407634,2.407634 0,1.331028 1.076607,2.407635 2.407634,2.407635 1.331026,0 2.407633,-1.076606 2.407633,-2.407635 0,-1.331026 -1.076607,-2.407634 -2.407633,-2.407634 z m 0,0.590259 c 1.004434,0 1.817375,0.812941 1.817375,1.817375 0,1.004436 -0.812941,1.817377 -1.817375,1.817377 -1.004436,0 -1.817375,-0.812941 -1.817375,-1.817377 0,-1.004434 0.812939,-1.817375 1.817375,-1.817375 z m -6.1821838,5.91812 c -0.2557129,0 -0.5039702,0.03922 -0.7300568,0.124266 l 1.0407196,0.45046 c 0.896772,0.38316 1.358227,1.317504 1.025186,2.096972 -0.333041,0.779468 -1.3244651,1.097684 -2.2212374,0.714524 l -0.963053,-0.419395 c 0.3360332,0.686195 1.0332722,1.164985 1.8484416,1.164985 1.1404528,0 2.0659058,-0.925454 2.0659058,-2.065905 0,-1.140453 -0.925453,-2.065907 -2.0659058,-2.065907 z"
       id="rect4682"
       inkscape:connector-curvature="0" />
  </g>
</svg>
