<?xml version="1.0" encoding="UTF-8" standalone="no"?>
<!-- Created with Inkscape (http://www.inkscape.org/) -->

<svg
   xmlns:dc="http://purl.org/dc/elements/1.1/"
   xmlns:cc="http://creativecommons.org/ns#"
   xmlns:rdf="http://www.w3.org/1999/02/22-rdf-syntax-ns#"
   xmlns:svg="http://www.w3.org/2000/svg"
   xmlns="http://www.w3.org/2000/svg"
   xmlns:sodipodi="http://sodipodi.sourceforge.net/DTD/sodipodi-0.dtd"
   xmlns:inkscape="http://www.inkscape.org/namespaces/inkscape"
   width="48px"
   height="48px"
   id="svg4674"
   version="1.1"
   inkscape:version="0.48.3.1 r9886"
   sodipodi:docname="steam-logo-48.svg">
  <defs
     id="defs4676" />
  <sodipodi:namedview
     id="base"
     pagecolor="#ffffff"
     bordercolor="#666666"
     borderopacity="1.0"
     inkscape:pageopacity="0.0"
     inkscape:pageshadow="2"
     inkscape:zoom="10.417638"
     inkscape:cx="6.3738572"
     inkscape:cy="25.784333"
     inkscape:current-layer="layer1"
     showgrid="true"
     inkscape:grid-bbox="true"
     inkscape:document-units="px"
     inkscape:snap-bbox="false"
     inkscape:window-width="868"
     inkscape:window-height="684"
     inkscape:window-x="167"
     inkscape:window-y="58"
     inkscape:window-maximized="0" />
  <metadata
     id="metadata4679">
    <rdf:RDF>
      <cc:Work
         rdf:about="">
        <dc:format>image/svg+xml</dc:format>
        <dc:type
           rdf:resource="http://purl.org/dc/dcmitype/StillImage" />
        <dc:title />
      </cc:Work>
    </rdf:RDF>
  </metadata>
  <g
     id="layer1"
     inkscape:label="Layer 1"
     inkscape:groupmode="layer"
     style="display:inline">
    <path
       style="fill:#dfdbd2;fill-opacity:1;stroke-width:1.29999994999999990;stroke-linejoin:round;stroke-miterlimit:4;stroke-dasharray:none;opacity:1"
       d="M 10.65625 5.75 C 8.1545914 5.75 6.125 7.7483414 6.125 10.25 L 6.125 22.40625 L 17.25 27.15625 C 18.116038 26.580555 19.1637 26.25 20.28125 26.25 C 20.354417 26.25 20.427531 26.247152 20.5 26.25 L 25.28125 19.25 C 25.315615 15.173303 28.633942 11.875 32.71875 11.875 C 36.824908 11.875 40.15625 15.206342 40.15625 19.3125 C 40.15625 23.418658 36.824908 26.75 32.71875 26.75 C 32.676052 26.75 32.636277 26.750717 32.59375 26.75 L 25.75 31.625 C 25.750526 31.656232 25.75 31.687393 25.75 31.71875 C 25.75 34.738354 23.300854 37.1875 20.28125 37.1875 C 17.649616 37.1875 15.45896 35.320601 14.9375 32.84375 L 6.125 29.0625 L 6.125 38.125 C 6.125 40.626659 8.1545914 42.625 10.65625 42.625 L 38.375 42.625 C 40.876659 42.625 42.90625 40.626659 42.90625 38.125 L 42.90625 10.25 C 42.90625 7.7483414 40.876659 5.75 38.375 5.75 L 10.65625 5.75 z M 32.71875 14.46875 C 30.04095 14.46875 27.875 16.6347 27.875 19.3125 C 27.875 21.9903 30.04095 24.15625 32.71875 24.15625 C 35.39655 24.15625 37.5625 21.9903 37.5625 19.3125 C 37.5625 16.6347 35.39655 14.46875 32.71875 14.46875 z M 32.71875 15.65625 C 34.739503 15.65625 36.375 17.291747 36.375 19.3125 C 36.375 21.333253 34.739503 22.96875 32.71875 22.96875 C 30.697997 22.96875 29.0625 21.333253 29.0625 19.3125 C 29.0625 17.291747 30.697997 15.65625 32.71875 15.65625 z M 20.28125 27.5625 C 19.766798 27.5625 19.267347 27.641402 18.8125 27.8125 L 20.90625 28.71875 C 22.710401 29.489603 23.638771 31.369343 22.96875 32.9375 C 22.298729 34.505657 20.304151 35.145853 18.5 34.375 L 16.5625 33.53125 C 17.238542 34.911756 18.641267 35.875 20.28125 35.875 C 22.575645 35.875 24.4375 34.013145 24.4375 31.71875 C 24.4375 29.424355 22.575645 27.5625 20.28125 27.5625 z "
       id="rect4682" />
  </g>
</svg>
